<svg id="Group_35" data-name="Group 35" xmlns="http://www.w3.org/2000/svg" width="16.773" height="16.772" viewBox="0 0 16.773 16.772">
  <g id="Group_34" data-name="Group 34">
    <path id="Path_21" data-name="Path 21" d="M733.122,144.915H725.6a4.624,4.624,0,0,0-4.624,4.623v7.526a4.623,4.623,0,0,0,4.624,4.623h7.526a4.623,4.623,0,0,0,4.624-4.623v-7.526A4.624,4.624,0,0,0,733.122,144.915Zm3.268,12.13a3.288,3.288,0,0,1-3.287,3.288h-7.488a3.288,3.288,0,0,1-3.288-3.288v-7.487a3.288,3.288,0,0,1,3.288-3.288H733.1a3.288,3.288,0,0,1,3.287,3.288Z" transform="translate(-720.972 -144.915)" fill="#959595"/>
    <path id="Path_22" data-name="Path 22" d="M729.8,149.318a4.42,4.42,0,1,0,4.42,4.42A4.42,4.42,0,0,0,729.8,149.318Zm0,7.3a2.883,2.883,0,1,1,2.883-2.883A2.883,2.883,0,0,1,729.8,156.621Z" transform="translate(-721.409 -145.352)" fill="#959595"/>
    <path id="Path_23" data-name="Path 23" d="M736.238,149.045a.991.991,0,1,1-.992-.991A.992.992,0,0,1,736.238,149.045Z" transform="translate(-722.289 -145.226)" fill="#959595"/>
  </g>
</svg>
