<svg id="Group_30" data-name="Group 30" xmlns="http://www.w3.org/2000/svg" width="16.035" height="13.031" viewBox="0 0 16.035 13.031">
  <path id="Path_19" data-name="Path 19" d="M691.44,149.105a6.556,6.556,0,0,1-1.89.518A3.305,3.305,0,0,0,691,147.8a6.608,6.608,0,0,1-2.09.8,3.292,3.292,0,0,0-5.606,3,9.337,9.337,0,0,1-6.781-3.438,3.292,3.292,0,0,0,1.018,4.392,3.269,3.269,0,0,1-1.49-.412v.041a3.293,3.293,0,0,0,2.639,3.226,3.307,3.307,0,0,1-1.485.057,3.292,3.292,0,0,0,3.073,2.285,6.644,6.644,0,0,1-4.87,1.362,9.355,9.355,0,0,0,14.4-7.882c0-.142,0-.285-.009-.425a6.661,6.661,0,0,0,1.641-1.7Zm0,0" transform="translate(-675.405 -147.563)" fill="#959595"/>
</svg>
