<svg xmlns="http://www.w3.org/2000/svg" width="16.772" height="16.772" viewBox="0 0 16.772 16.772">
  <path id="Path_26" data-name="Path 26" d="M13.278,0H3.494A3.5,3.5,0,0,0,0,3.494v9.784a3.5,3.5,0,0,0,3.494,3.494h9.784a3.5,3.5,0,0,0,3.494-3.494V3.494A3.5,3.5,0,0,0,13.278,0ZM5.591,13.278h-2.1V5.591h2.1ZM4.543,4.7A1.234,1.234,0,1,1,5.766,3.466,1.226,1.226,0,0,1,4.543,4.7Zm9.435,8.575h-2.1V9.365c0-2.355-2.8-2.173-2.8,0v3.914h-2.1V5.591h2.1V6.828a2.658,2.658,0,0,1,4.892,1.733Z" fill="#959595"/>
</svg>
